<svg width="236" height="36" viewBox="0 0 236 36" fill="none" xmlns="http://www.w3.org/2000/svg">
<path d="M35.7864 16.5594C35.7546 16.1226 35.7068 15.6859 35.6416 15.2491C35.6187 15.0867 35.5637 14.9305 35.4799 14.7898C35.3961 14.649 35.2852 14.5265 35.1537 14.4295C35.0249 14.3331 34.8782 14.2634 34.7224 14.2247C34.5665 14.1859 34.4045 14.1788 34.2458 14.2038C33.9227 14.2514 33.6315 14.4258 33.4361 14.6889C33.2407 14.952 33.157 15.2822 33.2033 15.6073L33.212 15.6582C33.2627 16.012 33.3018 16.373 33.3264 16.7341C33.351 17.0951 33.3684 17.4882 33.3684 17.8682C33.3681 21.8112 31.8858 25.6083 29.2184 28.4987C26.551 31.389 22.8957 33.1588 18.9851 33.4534C15.0746 33.7481 11.1978 32.5457 8.13182 30.0874C5.06581 27.6291 3.03716 24.0964 2.45248 20.1975C2.42992 20.0353 2.37561 19.8793 2.29268 19.7383C2.20975 19.5974 2.09985 19.4743 1.96934 19.3764C1.83883 19.2784 1.69029 19.2074 1.53232 19.1675C1.37434 19.1276 1.21007 19.1196 1.04901 19.144C0.887938 19.1683 0.73327 19.2245 0.593945 19.3093C0.45462 19.3942 0.333404 19.5059 0.237308 19.6382C0.141211 19.7704 0.0721408 19.9205 0.0340922 20.0797C-0.00395638 20.2389 -0.0102294 20.4042 0.0156375 20.5659C0.692868 25.0823 3.0426 29.1746 6.59396 32.0227C10.1453 34.8708 14.6359 36.2642 19.1659 35.9238C23.6959 35.5833 27.9306 33.5341 31.0214 30.1868C34.1123 26.8396 35.8308 22.4415 35.8327 17.874C35.8342 17.4431 35.8183 17.0005 35.7864 16.5594Z" fill="black"/>
<path d="M3.41771 18.1481C4.65568 19.122 6.32513 19.8296 8.37972 20.2503C12.3832 21.0714 17.5016 20.6551 21.4399 19.1876C22.6049 18.7613 23.7373 18.2499 24.8281 17.6575C24.9429 17.9916 25.0396 18.3318 25.1176 18.6766C21.5905 18.8833 17.7231 20.3202 14.7187 22.5462C13.7812 23.224 12.9302 24.0151 12.1848 24.9018C11.4609 25.7884 11.041 26.6575 10.957 27.4131C10.8354 28.5021 11.3407 29.3727 12.3398 29.8036C13.0536 30.1122 14.0208 30.2753 15.1386 30.2753C16.9738 30.2504 18.7909 29.9056 20.5089 29.2562C21.8936 28.7527 23.1898 28.0308 24.3488 27.1176C25.5486 26.1835 26.4989 24.9643 27.1143 23.5697C27.4309 22.8278 27.6358 22.0428 27.7224 21.2403C28.9238 21.4038 30.0923 21.755 31.1859 22.2812C31.3315 22.3519 31.4896 22.393 31.651 22.4022C31.8125 22.4114 31.9741 22.3886 32.1268 22.335C32.2795 22.2814 32.4202 22.1981 32.5408 22.0898C32.6614 21.9815 32.7597 21.8504 32.83 21.704C32.9002 21.5575 32.9411 21.3986 32.9503 21.2363C32.9594 21.0739 32.9367 20.9114 32.8834 20.7579C32.8301 20.6044 32.7473 20.4629 32.6396 20.3416C32.5319 20.2203 32.4015 20.1215 32.2559 20.0509C30.802 19.3519 29.2398 18.9087 27.637 18.7406C27.5094 17.9955 27.3116 17.2643 27.0463 16.5568C27.0105 16.4598 26.9758 16.3627 26.942 16.2657C28.1003 15.3266 28.8677 14.3294 29.2066 13.3001C29.793 11.5211 29.0096 10.0972 27.9729 9.46541C27.6736 9.2783 27.3399 9.15364 26.9916 9.09887C26.6434 9.0441 26.2877 9.06032 25.9458 9.14658C25.5936 9.24479 25.2651 9.41441 24.9805 9.645C24.6959 9.87558 24.4612 10.1623 24.2909 10.4874C23.8565 11.2561 23.4685 12.7047 24.0722 15.2582C22.9563 15.8982 21.7873 16.4399 20.5784 16.8771C17.0513 18.1874 12.4542 18.5688 8.86767 17.8351C7.2127 17.4959 5.85166 16.9324 4.93079 16.2074C4.03887 15.5057 3.5683 14.6497 3.5321 13.6641C3.49301 12.6173 3.91001 11.3842 4.77586 10.0012C6.36749 7.47701 8.63277 5.45357 11.3132 4.16176C13.7173 2.98228 16.3697 2.40583 19.0436 2.48171C21.7239 2.54944 24.3377 3.33549 26.6148 4.75866C29.0762 6.31496 31.0338 8.56861 32.4267 11.4556C32.5324 11.676 32.7006 11.86 32.9102 11.9843C33.1199 12.1087 33.3615 12.1677 33.6044 12.154C33.8474 12.1403 34.0809 12.0544 34.2754 11.9073C34.4699 11.7602 34.6166 11.5584 34.6971 11.3274C34.8006 11.0344 34.7892 10.7126 34.6652 10.4277L34.6435 10.3782C33.0508 7.06617 30.7848 4.4704 27.9251 2.66224C25.2747 1.00431 22.2322 0.0876148 19.1117 0.0067706C16.0455 -0.0749772 13.0046 0.584559 10.2446 1.92994C7.14845 3.42343 4.53276 5.76286 2.69665 8.68071C1.56438 10.4918 1.01852 12.198 1.07643 13.7514C1.14159 15.4926 1.92926 16.9747 3.41771 18.1481ZM16.1782 24.5363C18.8192 22.5782 22.1914 21.3204 25.2508 21.1413C25.1858 21.6121 25.0623 22.0729 24.8831 22.5127L24.8498 22.5899C24.3932 23.6116 23.6912 24.5031 22.8068 25.1842C21.8537 25.9324 20.7876 26.5222 19.6489 26.9312C17.0281 27.9125 14.6 27.9721 13.4402 27.531C13.5966 27.1401 13.8179 26.7788 14.0947 26.4624C14.708 25.7369 15.4078 25.09 16.1782 24.5363ZM26.7075 11.5793C26.887 11.6885 27.0361 11.9971 26.8667 12.514C26.7286 12.8899 26.5202 13.2358 26.2528 13.533C26.1268 12.4601 26.3064 11.9316 26.4352 11.7045C26.4643 11.6399 26.5157 11.5881 26.58 11.5589C26.6015 11.5534 26.6239 11.5523 26.6458 11.5558C26.6678 11.5593 26.6887 11.5673 26.7075 11.5793Z" fill="black"/>
<path d="M59.734 17.586H63.1061V27.231C61.8454 28.2664 60.4038 29.0564 58.8551 29.5604C57.224 30.1045 55.516 30.3788 53.7975 30.3727C51.3158 30.3727 49.0792 29.8253 47.0879 28.7306C45.1449 27.6811 43.5238 26.1181 42.3995 24.2101C41.2624 22.2913 40.6943 20.1313 40.6953 17.7302C40.6963 15.329 41.2643 13.1627 42.3995 11.2313C43.5198 9.31165 45.1498 7.7438 47.1067 6.70358C49.1077 5.62043 51.3611 5.07886 53.867 5.07886C55.8342 5.07886 57.62 5.40254 59.2243 6.04991C60.7905 6.66978 62.1932 7.64479 63.3233 8.899L61.1515 11.0828C59.1852 9.17561 56.8087 8.22203 54.0219 8.22203C52.1464 8.22203 50.4658 8.62821 48.9803 9.44058C47.5249 10.2223 46.315 11.3965 45.4865 12.8312C44.6555 14.3209 44.219 16.0003 44.219 17.7083C44.219 19.4164 44.6555 21.0957 45.4865 22.5854C46.3175 24.0227 47.5264 25.2019 48.9803 25.9936C50.512 26.828 52.2308 27.2541 53.9727 27.231C56.1735 27.231 58.094 26.7016 59.734 25.6427V17.586Z" fill="black"/>
<path d="M68.9688 3.88354H72.3395V30.0888H68.9688V3.88354Z" fill="black"/>
<path d="M81.405 29.0656C79.9615 28.2723 78.7648 27.0927 77.9473 25.6575C77.1153 24.2094 76.6992 22.5672 76.6992 20.7309C76.6992 18.8946 77.1153 17.2519 77.9473 15.8028C78.7626 14.3702 79.961 13.1961 81.4064 12.4136C82.8823 11.6012 84.545 11.1951 86.3945 11.1951C88.244 11.1951 89.9004 11.6012 91.3637 12.4136C92.8017 13.2006 93.9938 14.3741 94.8069 15.8028C95.6332 17.2519 96.0463 18.8946 96.0463 20.7309C96.0463 22.5672 95.6307 24.2094 94.7996 25.6575C93.9842 27.0893 92.7931 28.2682 91.3565 29.0656C89.8941 29.8896 88.2377 30.3016 86.3872 30.3016C84.5368 30.3016 82.876 29.8896 81.405 29.0656ZM89.606 26.5033C90.5525 25.953 91.3258 25.1457 91.8372 24.1739C92.3685 23.1046 92.6451 21.9255 92.6451 20.7301C92.6451 19.5347 92.3685 18.3557 91.8372 17.2863C91.3283 16.3169 90.554 15.5142 89.606 14.973C88.6178 14.4397 87.5138 14.1606 86.3923 14.1606C85.2708 14.1606 84.1668 14.4397 83.1787 14.973C82.2285 15.5168 81.4498 16.3185 80.9315 17.2863C80.3881 18.3521 80.1047 19.5325 80.1047 20.7301C80.1047 21.9278 80.3881 23.1082 80.9315 24.1739C81.4522 25.1442 82.23 25.9504 83.1787 26.5033C84.1632 27.0477 85.2687 27.3332 86.3923 27.3332C87.5159 27.3332 88.6214 27.0477 89.606 26.5033Z" fill="black"/>
<path d="M115.09 12.3941C116.497 13.1731 117.659 14.3331 118.444 15.7426C119.252 17.18 119.656 18.8401 119.656 20.723C119.656 22.6059 119.252 24.2714 118.444 25.7195C117.665 27.1395 116.502 28.3089 115.09 29.0927C113.662 29.8934 112.046 30.2938 110.242 30.2938C108.934 30.3096 107.638 30.0321 106.45 29.4814C105.315 28.951 104.335 28.1358 103.605 27.1142V30.0812H100.373V3.87598H103.745V14.1892C104.477 13.2135 105.443 12.4414 106.554 11.9457C107.715 11.4359 108.97 11.1799 110.236 11.1945C112.044 11.1945 113.662 11.5944 115.09 12.3941ZM113.176 26.5028C114.124 25.9495 114.902 25.1434 115.424 24.1734C115.967 23.1074 116.25 21.927 116.25 20.7296C116.25 19.5321 115.967 18.3518 115.424 17.2858C114.905 16.3181 114.126 15.5166 113.176 14.9724C112.191 14.4392 111.089 14.16 109.971 14.16C108.852 14.16 107.751 14.4392 106.766 14.9724C105.81 15.51 105.03 16.3132 104.517 17.2858C103.986 18.3552 103.709 19.5342 103.709 20.7296C103.709 21.925 103.986 23.104 104.517 24.1734C105.031 25.1479 105.809 25.9556 106.761 26.5028C107.743 27.0471 108.845 27.3326 109.966 27.3326C111.087 27.3326 112.19 27.0471 113.171 26.5028H113.176Z" fill="black"/>
<path d="M136.498 13.1093C137.868 14.3807 138.552 16.2758 138.552 18.7944V30.0961H135.357V27.6212C134.771 28.513 133.933 29.2081 132.95 29.6172C131.908 30.0753 130.673 30.3048 129.245 30.3058C127.16 30.3058 125.492 29.7996 124.24 28.7873C122.988 27.775 122.36 26.4444 122.357 24.7954C122.357 23.1454 122.954 21.8211 124.149 20.8224C125.343 19.8237 127.239 19.3233 129.839 19.3214H135.177V18.6415C135.177 17.1857 134.756 16.0695 133.913 15.2931C133.071 14.5166 131.83 14.1284 130.191 14.1284C129.091 14.1287 127.998 14.3137 126.959 14.6758C125.987 14.9958 125.082 15.4927 124.289 16.1418L122.884 13.5985C123.908 12.7886 125.076 12.1833 126.326 11.8151C127.704 11.397 129.137 11.1889 130.576 11.1978C133.154 11.1958 135.128 11.833 136.498 13.1093ZM133.143 26.8292C134.073 26.2601 134.79 25.3969 135.18 24.3747V21.7541H129.982C127.125 21.7541 125.697 22.7194 125.698 24.6498C125.682 25.0824 125.774 25.5121 125.964 25.9005C126.154 26.289 126.436 26.624 126.787 26.8758C127.512 27.4174 128.519 27.6882 129.807 27.6882C131.095 27.6882 132.207 27.3994 133.143 26.8219V26.8292Z" fill="black"/>
<path d="M144.455 3.88354H147.827V30.0888H144.455V3.88354Z" fill="black"/>
<path d="M174.308 19.4404C175.126 20.4886 175.536 21.8129 175.537 23.4134C175.537 25.5564 174.735 27.2063 173.131 28.3632C171.526 29.5202 169.19 30.0952 166.123 30.0884H154.395V5.3667H165.423C168.233 5.3667 170.405 5.93157 171.939 7.06131C173.473 8.19104 174.237 9.75705 174.231 11.7593C174.231 13.0541 173.932 14.1702 173.335 15.1078C172.75 16.039 171.917 16.7858 170.93 17.2624C172.358 17.6671 173.484 18.3931 174.308 19.4404ZM157.904 8.23035V16.1414H165.109C166.911 16.1414 168.298 15.8056 169.27 15.134C170.242 14.4623 170.729 13.4796 170.729 12.1859C170.729 10.8921 170.242 9.90894 169.27 9.23634C168.298 8.56374 166.911 8.22744 165.109 8.22744L157.904 8.23035ZM170.478 26.2421C171.485 25.5831 171.988 24.547 171.988 23.1338C171.988 20.3794 169.986 19.0022 165.982 19.0022H157.904V27.2306H165.978C167.972 27.2306 169.472 26.9001 170.478 26.2392V26.2421Z" fill="black"/>
<path d="M196.892 21.8603H181.788C181.999 23.5102 182.719 24.8346 183.948 25.8333C185.177 26.832 186.705 27.3323 188.532 27.3342C190.752 27.3342 192.544 26.5806 193.907 25.0733L195.769 27.2571C194.915 28.2562 193.835 29.0338 192.62 29.5238C191.284 30.058 189.857 30.3221 188.421 30.3013C186.454 30.3013 184.71 29.8951 183.188 29.0827C181.709 28.3128 180.483 27.1292 179.658 25.6746C178.827 24.2187 178.411 22.5688 178.411 20.7247C178.386 19.0105 178.804 17.3192 179.623 15.8156C180.395 14.3896 181.549 13.2091 182.953 12.4075C184.416 11.5829 186.07 11.1625 187.747 11.1889C189.526 11.1889 191.113 11.5951 192.508 12.4075C193.894 13.2122 195.026 14.3934 195.775 15.8156C196.558 17.2714 196.95 18.9428 196.95 20.8295C196.949 21.1739 196.93 21.5179 196.892 21.8603ZM183.703 15.539C182.614 16.528 181.976 17.8227 181.788 19.4232H193.73C193.544 17.846 192.906 16.5571 191.816 15.5565C190.726 14.5558 189.375 14.0555 187.762 14.0555C186.146 14.0555 184.793 14.55 183.703 15.539Z" fill="black"/>
<path d="M218.04 21.8605H202.935C203.147 23.5104 203.867 24.8348 205.096 25.8335C206.324 26.8322 207.852 27.3325 209.68 27.3345C211.9 27.3345 213.691 26.5808 215.054 25.0735L216.915 27.2573C216.063 28.254 214.985 29.0296 213.771 29.5182C212.436 30.0524 211.009 30.3165 209.572 30.2957C207.606 30.2957 205.862 29.8895 204.34 29.0771C202.86 28.3077 201.634 27.1239 200.81 25.669C199.978 24.2131 199.562 22.5632 199.562 20.7191C199.537 19.0049 199.954 17.3136 200.773 15.81C201.546 14.3844 202.7 13.2041 204.104 12.4018C205.567 11.5773 207.221 11.1569 208.898 11.1833C210.677 11.1833 212.263 11.5895 213.657 12.4018C215.043 13.2065 216.176 14.3877 216.925 15.81C217.708 17.2658 218.1 18.9371 218.101 20.8239C218.099 21.1703 218.078 21.5163 218.04 21.8605ZM204.849 15.5392C203.761 16.5282 203.122 17.8229 202.935 19.4234H214.878C214.691 17.8462 214.053 16.5573 212.964 15.5567C211.874 14.556 210.522 14.0557 208.909 14.0557C207.292 14.0557 205.938 14.5502 204.849 15.5392Z" fill="black"/>
<path d="M223.375 29.6829C221.971 29.2714 220.871 28.7477 220.074 28.112L221.479 25.4274C222.39 26.0601 223.399 26.5372 224.464 26.8396C225.615 27.1901 226.81 27.3686 228.012 27.3695C230.963 27.3695 232.438 26.5222 232.438 24.8276C232.449 24.5726 232.4 24.3185 232.296 24.0855C232.193 23.8526 232.036 23.6471 231.84 23.4853C231.402 23.1346 230.892 22.886 230.347 22.7574C229.751 22.605 228.902 22.4347 227.802 22.2464C226.56 22.0686 225.333 21.797 224.131 21.434C223.197 21.1378 222.356 20.6019 221.69 19.8792C221.014 19.1493 220.677 18.1254 220.677 16.8074C220.677 15.1118 221.379 13.753 222.785 12.731C224.19 11.709 226.072 11.197 228.432 11.1951C229.687 11.1968 230.937 11.3508 232.156 11.6537C233.397 11.9594 234.415 12.3714 235.211 12.8897L233.772 15.5743C232.248 14.5843 230.457 14.0898 228.397 14.0908C226.968 14.0908 225.879 14.3261 225.13 14.7968C224.381 15.2676 224.007 15.8916 224.007 16.6691C223.994 16.9429 224.045 17.2159 224.154 17.4669C224.263 17.7179 224.429 17.9401 224.638 18.1162C225.096 18.4883 225.63 18.7538 226.202 18.8936C226.822 19.0586 227.694 19.2469 228.818 19.4585C230.047 19.655 231.261 19.9322 232.454 20.2883C233.361 20.5716 234.178 21.0892 234.824 21.7893C235.481 22.4949 235.809 23.4839 235.809 24.7563C235.809 26.4519 235.089 27.8 233.648 28.8006C232.208 29.8013 230.247 30.3016 227.764 30.3016C226.279 30.3065 224.802 30.0981 223.375 29.6829Z" fill="black"/>
</svg>
