<svg version="1.1" xmlns="http://www.w3.org/2000/svg" xmlns:xlink="http://www.w3.org/1999/xlink" x="0px" y="0px"
	 viewBox="0 0 141.7 141.7" style="enable-background:new 0 0 141.7 141.7;" xml:space="preserve">
<style type="text/css">
	.stbuzz0{fill:url(#SVGID_1_);}
	.stbuzz1{fill:#FFFFFF;}
	.stbuzz2{fill:#6F6F6E;}
	.stbuzz3{fill:#E21F21;}
	.stbuzz4{fill:#FFFFFF;stroke:#1D1D1B;stroke-width:0.2688;}
	.stbuzz5{fill:#FFFFFF;stroke:#E20613;stroke-width:0.4896;}
</style>
<title>Buzzman</title>
<desc>Un logo de Buzzman en SVG</desc>
<g>
	<radialGradient id="SVGID_1_" cx="70.7378" cy="41.8715" r="34.9379" gradientUnits="userSpaceOnUse">
		<stop  offset="0" style="stop-color:#E20613"/>
		<stop  offset="1" style="stop-color:#FDECE4"/>
	</radialGradient>
	<path class="st0" d="M69.4,41.9l1.3-34.9L72,41.9H69.4z M72,41.8L67.7,7.1L69.4,42L72,41.8z M72,41.6L64.7,7.5l4.8,34.6L72,41.6z
		 M72,41.5L61.7,8.1l7.8,34.1L72,41.5z M72,41.4L58.8,9l10.7,33.3L72,41.4z M71.9,41.3L56,10.2l13.6,32.2L71.9,41.3z M71.9,41.2
		L53.3,11.6l16.3,30.9L71.9,41.2z M71.8,41.1L50.7,13.3l19,29.4L71.8,41.1z M71.7,41L48.3,15.1l21.4,27.6L71.7,41z M71.7,40.9
		L46,17.2l23.8,25.6L71.7,40.9z M71.6,40.9L44,19.4l25.9,23.5L71.6,40.9z M71.5,40.8l-29.4-19L70,43L71.5,40.8z M71.4,40.7
		L40.5,24.4L70.1,43L71.4,40.7z M71.3,40.7L39.1,27.1l31.1,16L71.3,40.7z M71.2,40.6L37.9,29.9l32.4,13.2L71.2,40.6z M71.1,40.6
		L37,32.8l33.4,10.3L71.1,40.6z M71,40.6l-34.6-4.8l34.2,7.4L71,40.6z M70.9,40.6l-34.9-1.7l34.7,4.4L70.9,40.6z M70.7,40.6
		l-34.9,1.3l34.9,1.3V40.6z M70.6,40.6l-34.7,4.4l34.9-1.7L70.6,40.6z M70.5,40.6l-34.2,7.4L71,43.2L70.5,40.6z M70.4,40.6L37,50.9
		l34.1-7.8L70.4,40.6z M70.3,40.6L37.9,53.8l33.3-10.7L70.3,40.6z M70.2,40.7l-31.1,16l32.2-13.6L70.2,40.7z M70.1,40.7L40.5,59.3
		L71.4,43L70.1,40.7z M70,40.8L42.1,61.9l29.4-19L70,40.8z M69.9,40.9L44,64.3l27.6-21.4L69.9,40.9z M69.8,40.9L46,66.6l25.6-23.8
		L69.8,40.9z M69.7,41L48.3,68.6l23.5-25.9L69.7,41z M69.7,41.1l-19,29.4l21.1-27.9L69.7,41.1z M69.6,41.2L53.3,72.1l18.6-29.6
		L69.6,41.2z M69.6,41.3L56,73.5l16-31.1L69.6,41.3z M69.5,41.4L58.8,74.7L72,42.3L69.5,41.4z M69.5,41.5l-7.8,34.1L72,42.2
		L69.5,41.5z M69.4,41.6l-4.8,34.6L72,42.1L69.4,41.6z M69.4,41.8l-1.7,34.9L72.1,42L69.4,41.8z M69.4,41.9l1.3,34.9l1.3-34.9H69.4z
		 M69.4,42l4.4,34.7l-1.7-34.9L69.4,42z M69.4,42.1l7.4,34.2L72,41.6L69.4,42.1z M69.5,42.2l10.3,33.4L72,41.5L69.5,42.2z
		 M69.5,42.3l13.2,32.4L72,41.4L69.5,42.3z M69.6,42.4l16,31.1L71.9,41.3L69.6,42.4z M69.6,42.5l18.6,29.6L71.9,41.2L69.6,42.5z
		 M69.7,42.6l21.1,27.9l-19-29.4L69.7,42.6z M69.7,42.7l23.5,25.9L71.8,41L69.7,42.7z M69.8,42.8l25.6,23.8L71.7,40.9L69.8,42.8z
		 M69.9,42.9l27.6,21.5L71.6,40.9L69.9,42.9z M70,42.9l29.4,19L71.5,40.8L70,42.9z M70.1,43L101,59.3L71.4,40.7L70.1,43z M70.2,43.1
		l32.2,13.6l-31.1-16L70.2,43.1z M70.3,43.1l33.3,10.7L71.2,40.6L70.3,43.1z M70.4,43.1l34.1,7.8L71.1,40.6L70.4,43.1z M70.5,43.2
		l34.6,4.8L71,40.6L70.5,43.2z M70.6,43.2l34.9,1.7l-34.7-4.4L70.6,43.2z M70.7,43.2l34.9-1.3l-34.9-1.3V43.2z M70.9,43.2l34.7-4.3
		l-34.9,1.7L70.9,43.2z M71,43.2l34.2-7.4l-34.6,4.8L71,43.2z M71.1,43.1l33.4-10.3l-34.1,7.8L71.1,43.1z M71.2,43.1l32.4-13.2
		L70.3,40.6L71.2,43.1z M71.3,43.1l31.1-16L70.2,40.7L71.3,43.1z M71.4,43L101,24.4L70.1,40.7L71.4,43z M71.5,42.9l27.9-21.1
		L70,40.8L71.5,42.9z M71.6,42.9l25.9-23.5L69.9,40.9L71.6,42.9z M71.7,42.8l23.8-25.6L69.8,40.9L71.7,42.8z M71.7,42.7l21.5-27.6
		L69.7,41L71.7,42.7z M71.8,42.6l19-29.4L69.7,41.1L71.8,42.6z M71.9,42.5l16.3-30.9L69.6,41.2L71.9,42.5z M71.9,42.4l13.6-32.2
		l-16,31.1L71.9,42.4z M72,42.3L82.7,9L69.5,41.4L72,42.3z M72,42.2l7.8-34.1L69.5,41.5L72,42.2z M72,42.1l4.8-34.6l-7.4,34.2
		L72,42.1z M72,42l1.7-34.9l-4.4,34.7L72,42z"/>
	<g>
		<path class="stbuzz1" d="M70.1,70.6c3.7,0,9.3-5.4,10.8-6.9c3.2-3.2,8-22.8,6.8-30.3c-2.3-15.5-17.6-15.4-17.6-15.4h0
			c0,0-15.3-0.1-17.6,15.4c-1.1,7.5,3.6,27.1,6.8,30.3C60.8,65.2,66.4,70.6,70.1,70.6L70.1,70.6z"/>
		<g>
			<path class="stbuzz2" d="M69.7,71.3c9-1,13.5-10.2,15.6-17.7C88.4,42.8,91.8,27,80,20c-5.1-3-10.9-3.4-16.3-1.3
				C55.1,22.1,51.4,30.9,52,39.6c0.5,6.9,2,14,4.6,20.5C58.4,64.8,64.2,71.3,69.7,71.3c0.4,0,0.7-1.4,0.8-1.4
				c-3.8,0-8.5-4.1-10.8-6.9c-2.5-3-3.5-7.5-4.5-11.2c-2.9-11-5.7-26.5,7.6-31.7c12.6-5,25.2,4.8,24.6,18.4
				C86.9,49.2,84,68.4,70.5,69.9C70.1,70,69.9,71.3,69.7,71.3z"/>
		</g>
	</g>
	<path class="stbuzz3" d="M84.4,56c0,0-1.6,5.7-3.5,7.8c-1.8,1.9-7.3,6.9-10.8,6.9h0c-3.5,0-9-5-10.8-6.9c-1.8-1.9-3.5-7.9-3.5-7.9
		s-0.3-5.4-0.5-6.4c-0.2-1.1-3.4-11.2-1.5-18.3c0.6-2.4,3.3-1,3.3-1l2.3,2.5c0,0,0.6,0.7,1,0.4c0.4-0.4,0.1-1.1,0.1-1.1
		s-1.7-4.8-2-5c-0.3-0.2,1.9-1.2,2.9,0c1,1.2,0.7,1.8,0.7,1.8s0.6,0.6,0.8-0.1c0.2-0.7,0.8-4.2-0.3-5.5c-1.1-1.3-1.1-1.3-1.1-1.3
		s1.2-0.4,2,0.1c0.8,0.4,1.1,1,1.1,1s0.6,0.4,0.6-0.6c-0.1-0.9,0.1-2.3,0.1-2.3s0.5-0.9,4.8-0.9h0.1c4.3,0,4.8,0.9,4.8,0.9
		s0.1,1.4,0.1,2.3c-0.1,0.9,0.6,0.6,0.6,0.6s0.3-0.6,1.1-1c0.8-0.4,2-0.1,2-0.1s0,0-1.1,1.3c-1.1,1.3-0.5,4.8-0.3,5.5
		c0.2,0.7,0.8,0.1,0.8,0.1s-0.3-0.6,0.7-1.8c1-1.2,3.2-0.2,2.9,0c-0.3,0.2-2,5-2,5s-0.4,0.7,0.1,1.1c0.4,0.4,1-0.4,1-0.4l2.3-2.5
		c0,0,2.7-1.4,3.3,1c1.9,7.1-1.3,17.3-1.6,18.3c-0.2,1.1-0.5,6.4-0.5,6.4L84.4,56z"/>
	<path class="stbuzz1" d="M70.2,64.3c1.6,0,2.3,1.1,2.3,1.1s5.9-3.2,6-3.6c0.6-3.3,3.9-10.2,3.9-10.2s0.2-0.4-1.6-0.1
		c-1.8,0.3-2.6,0.1-2.6,0.1L78,50.7c0.9,0.3,1.8,0.5,3.7,0.2c1.9-0.3,2.6-4.7,2.7-5.8c0.1-1.1,1.4-11.8,1.4-11.8s-3.6-0.9-7.5,0.9
		c-3.9,1.8-5.3,4.2-5.3,4.2l-3-1.3L67,38.4c0,0-1.4-2.3-5.3-4.2c-3.9-1.8-7.5-0.9-7.5-0.9s1.3,10.7,1.4,11.8
		c0.1,1.1,0.8,5.5,2.7,5.8c1.9,0.3,2.7,0.1,3.7-0.2l-0.4,0.8c0,0-0.8,0.1-2.6-0.1c-1.8-0.3-1.6,0.1-1.6,0.1s3.4,6.9,3.9,10.2
		c0.1,0.4,6,3.6,6,3.6s0.7-1.1,2.3-1.1H70.2z"/>
	<path class="stbuzz2" d="M70.2,53.2l5.2-0.8c0.1-2-5.4-7.7-5.4-7.7h0c0,0-5.4,5.7-5.4,7.7l5.2,0.8H70.2z"/>
	<path class="stbuzz2" d="M70.1,57.3c-5.2,0.1-6.9-1.5-6.9-1.5l0.4,4.5h13l0.4-4.5C77.1,55.8,75.4,57.5,70.1,57.3"/>
	<path class="stbuzz4" d="M58.2,37.3c0,0,5.1,2.5,5.9,2.9c0.8,0.4,2.1,1.4,2.1,3.3c0,1.9-0.5,3.4-0.5,3.4l-4.2-1.4c0,0-3.4-0.8-3.5-3.1
		C58,40,58.1,37.3,58.2,37.3"/>
	<path class="stbuzz4" d="M81.8,37.3c0,0-5.1,2.5-5.9,2.9c-0.8,0.4-2.1,1.4-2.1,3.3c0,1.9,0.5,3.4,0.5,3.4l4.2-1.4c0,0,3.4-0.8,3.5-3.1
		C82,40,81.9,37.3,81.8,37.3"/>
	<circle class="stbuzz1" cx="70.1" cy="30.1" r="5.3"/>
	<g>
		<path class="stbuzz2" d="M67.1,26.5h4.7l0.9,0.2l0.5,0.5v2.1l-0.5,0.5L71.8,30l0.9,0.2l0.5,0.5v2.1l-0.5,0.5l-0.9,0.2h-1.9l-1-0.2
			l-0.3,0.2h-1.6v-0.5H68v-6.1h-0.9V26.5z M71.3,26.9h-1.4v2.8h1.4V26.9z M69.9,33.1h1.4v-2.8h-1.4V33.1z"/>
	</g>
	<path class="stbuzz2" d="M58.4,37c0,0-0.5,6.4,1.1,7.2c1.6,0.8,6.5,2.2,6.5,2.2v-5.1C66,41.2,58.8,39,58.4,37z"/>
	<path class="stbuzz2" d="M81.7,37c0,0,0.5,6.4-1.1,7.2c-1.6,0.8-6.5,2.2-6.5,2.2v-5.1C74.1,41.2,81.3,39,81.7,37z"/>
	<path class="stbuzz5" d="M57.7,36.2l0,5.4l0,0c0,0.1,0.3,3,2.1,3.6c0.5,0.2,1.2,0.3,1.9,0.5c1.3,0.3,3.6,0.9,3.9,1.4l0,0l0.5,1l0.2-1.1
		c0.2-1.1,1.2-5.5-1.4-7c-0.8-0.5-1.9-1.1-3-1.4C60.8,38.3,57.8,36.8,57.7,36.2z M58.4,38c0.6,0.4,1.6,0.9,3.1,1.5
		c1.1,0.5,2.1,0.9,3,1.4c1,0.6,1.2,2,1.2,3.3c0,0.7-0.1,1.4-0.1,1.8c-0.7-0.4-1.9-0.8-3.8-1.3c-0.7-0.2-1.4-0.4-1.9-0.5
		c-1.2-0.4-1.5-2.5-1.5-2.8C58.4,41.5,58.4,39.2,58.4,38z"/>
	<path class="stbuzz5" d="M78.3,38.6c-1.1,0.4-2.2,0.9-3,1.4c-2.6,1.5-1.6,5.9-1.4,7l0.2,1.1l0.5-1l0,0c0.3-0.4,2.6-1,3.9-1.4
		c0.7-0.2,1.5-0.4,1.9-0.5c1.7-0.6,2-3.5,2.1-3.6l0,0l0-5.4C82.3,36.8,79.3,38.3,78.3,38.6z M81.7,41.5c0,0.2-0.3,2.4-1.5,2.8
		c-0.4,0.2-1.1,0.3-1.9,0.5c-1.9,0.5-3.1,0.8-3.8,1.3c-0.1-0.5-0.1-1.1-0.1-1.8c0-1.3,0.2-2.8,1.2-3.3c0.8-0.5,1.9-0.9,3-1.4
		c1.5-0.7,2.5-1.1,3.1-1.5C81.7,39.2,81.7,41.5,81.7,41.5z"/>
</g>
<g>
	<g>
		<path class="stbuzz3" d="M12.6,92.3h6.2c5.5,0,7.6,3.6,7.6,7.5v1.1c0,3.2-1,4.4-2.9,5.5c2,1,2.9,2.8,2.9,5.9v1.7c0,5.2-2.5,8.1-8,8.1
			h-5.8V92.3z M16.9,104.6h1.9c2.9,0,3.6-1.5,3.6-4.2c0-2.6-1-4-3.8-4h-1.8V104.6z M16.9,117.9h1.8c3.4,0,3.7-2.1,3.7-5
			c0-3-0.5-4.5-3.6-4.5h-1.9V117.9z"/>
		<path class="stbuzz3" d="M42.2,115.5c0,3.9-3.1,7-6.9,7c-3.8,0-6.9-3.1-6.9-7V92.3h4.3V115c0,2.1,1.1,3.1,2.6,3.1c1.5,0,2.6-1,2.6-3.1
			V92.3h4.3V115.5z"/>
		<path class="stbuzz3" d="M44,118.4L52,96.3h-7.6v-4h12.3v3.4l-8.2,22.4h8.2v4H44V118.4z"/>
		<path class="stbuzz3" d="M58.8,118.4l8.1-22.1h-7.6v-4h12.3v3.4l-8.2,22.4h8.2v4H58.8V118.4z"/>
	</g>
	<g>
		<path class="stbuzz2" d="M73.7,92.3h4.1l5.5,15.8h0.1l5.5-15.8H93v29.9h-4.3V104h-0.1l-4.2,12.8h-2.1L78.1,104H78v18.2h-4.3V92.3z"/>
		<path class="stbuzz2" d="M101.8,92.3h3.6l6.7,29.9h-4.3l-1.3-6.4h-5.8l-1.3,6.4h-4.3L101.8,92.3z M103.6,100.9L103.6,100.9l-2.2,10.8
			h4.3L103.6,100.9z"/>
		<path class="stbuzz2" d="M113.9,92.3h4.1l6.5,18h0.1v-18h4.3v29.9h-4l-6.5-18h-0.1v18h-4.3V92.3z"/>
	</g>
</g>
</svg>
