<?xml version="1.0" standalone="no"?>
<!DOCTYPE svg PUBLIC "-//W3C//DTD SVG 20010904//EN"
 "http://www.w3.org/TR/2001/REC-SVG-20010904/DTD/svg10.dtd">
<svg version="1.0" xmlns="http://www.w3.org/2000/svg"
 width="288.000000pt" height="288.000000pt" viewBox="0 0 288.000000 288.000000"
 preserveAspectRatio="xMidYMid meet">

<g transform="translate(0.000000,288.000000) scale(0.100000,-0.100000)"
fill="#000000" stroke="none">
<path d="M1630 2825 c0 -3 11 -22 24 -43 37 -57 42 -101 16 -158 -23 -53 -29
-130 -11 -160 9 -16 10 -13 11 19 0 59 23 100 89 158 33 29 61 60 61 69 0 29
-40 79 -79 100 -36 18 -111 28 -111 15z"/>
<path d="M1887 2743 c-8 -50 -27 -75 -93 -123 -73 -54 -98 -105 -91 -181 l5
-58 -49 19 c-26 11 -63 26 -82 33 -18 8 -76 25 -128 38 -81 20 -119 23 -279
24 -224 0 -302 -15 -435 -83 -73 -38 -108 -65 -187 -143 -109 -109 -174 -148
-293 -174 -41 -10 -89 -27 -107 -39 -43 -29 -78 -98 -78 -155 0 -42 4 -49 54
-96 29 -27 57 -60 61 -73 10 -34 60 -88 95 -102 27 -11 30 -17 30 -58 0 -44 0
-45 20 -27 11 10 22 26 25 36 13 39 25 17 25 -42 0 -71 9 -70 57 6 26 42 30
44 98 56 84 14 235 7 320 -15 85 -23 230 -96 300 -153 152 -123 278 -338 301
-514 l7 -49 -41 40 c-56 57 -94 56 -123 -3 -26 -50 -77 -117 -90 -117 -5 0 -9
28 -9 61 l0 61 -41 -81 c-38 -76 -42 -81 -72 -81 -68 1 -148 58 -163 116 -3
13 2 43 11 68 20 52 14 79 -21 94 -37 17 -80 15 -124 -8 -126 -65 -130 -271
-6 -408 l36 -40 -45 -11 c-25 -6 -45 -13 -45 -16 0 -11 85 -46 165 -70 243
-70 505 13 670 212 63 76 119 187 139 273 8 34 17 64 20 67 10 11 18 -96 13
-186 -10 -194 -103 -381 -245 -497 -30 -24 -48 -44 -40 -44 26 0 175 39 243
64 38 14 71 23 73 21 8 -7 -55 -79 -140 -160 -75 -72 -118 -105 -228 -174
l-35 -22 50 6 c303 38 592 221 768 488 29 42 53 73 55 67 12 -35 -94 -315
-147 -389 -33 -46 -25 -46 32 0 134 112 238 244 312 402 45 95 95 250 95 295
0 16 4 22 9 16 14 -13 34 -220 28 -276 -4 -27 -4 -48 -2 -48 1 0 24 35 48 78
229 389 230 837 5 1286 -67 134 -192 315 -207 301 -3 -4 -11 -32 -17 -64 -39
-189 -203 -348 -394 -381 -64 -12 -173 -6 -198 9 -8 5 7 12 40 20 169 37 307
165 358 330 29 91 27 225 -4 312 -39 111 -99 186 -207 258 -78 52 -95 53 -102
4z"/>
</g>
</svg>
