
<svg xmlns="http://www.w3.org/2000/svg" viewBox="0 0 128 128"><path d="M114.03196 124.32591H94.330239l1.470275-17.30782h-9.703831l-1.470276 17.30782H44.046744l-1.470277-17.30782h-9.703832l1.470277 17.30782H14.641193L3.4670824 48.913267 31.108303 2.5530327h66.456546L125.20606 48.913267zM91.977793 25.733148H74.334462l1.176223 8.653913H53.45652l1.176223-8.653913H36.989412l-11.17411 23.180119 5.587055 46.360234h66.456546l5.587057-46.360234zm-9.703832 54.086941c-1.470278 0-2.646498-4.945092-2.646498-10.817387 0-5.872297 1.17622-10.817389 2.646498-10.817389 1.470278 0 2.6465 4.945092 2.6465 10.817389.294056 6.181364-1.176222 10.817387-2.6465 10.817387zm-34.992606.927205c-1.470276 0-2.6465-4.945091-2.6465-10.817388 0-5.872296 1.176224-10.817388 2.6465-10.817388 1.470278 0 2.646501 4.945092 2.646501 10.817388.294055 6.181366-.882167 10.817388-2.646501 10.817388z" fill="#fff"/></svg>